<?xml version="1.0" standalone="no"?>
<!DOCTYPE svg PUBLIC "-//W3C//DTD SVG 20010904//EN"
 "http://www.w3.org/TR/2001/REC-SVG-20010904/DTD/svg10.dtd">
<svg version="1.0" xmlns="http://www.w3.org/2000/svg"
 width="512.000000pt" height="512.000000pt" viewBox="0 0 512.000000 512.000000"
 preserveAspectRatio="xMidYMid meet">
<metadata>
Created by potrace 1.11, written by Peter Selinger 2001-2013
</metadata>
<g transform="translate(0.000000,512.000000) scale(0.100000,-0.100000)"
fill="#000000" stroke="none">
<path d="M0 2560 l0 -2560 2560 0 2560 0 0 2560 0 2560 -2560 0 -2560 0 0
-2560z m1625 1526 c337 -76 539 -284 612 -627 24 -118 24 -392 -1 -507 -51
-238 -159 -430 -310 -553 -78 -64 -220 -133 -316 -154 -53 -12 -147 -18 -322
-22 l-248 -5 0 -559 0 -559 -150 0 -150 0 0 1506 0 1506 408 -5 c322 -4 422
-8 477 -21z m1116 -18 c18 -71 688 -2499 705 -2557 8 -29 17 -51 20 -49 2 3
162 576 354 1274 193 698 357 1293 365 1322 l16 52 154 0 c85 0 155 -1 155 -2
0 -2 -191 -678 -423 -1503 l-424 -1500 -205 -3 -206 -2 -11 32 c-5 18 -191
674 -411 1458 -221 784 -407 1446 -415 1473 l-14 47 164 0 164 0 12 -42z"/>
<path d="M1040 3165 l0 -607 233 5 c252 5 317 16 409 70 63 37 148 132 185
208 56 115 68 176 67 354 0 148 -2 166 -27 239 -48 137 -112 214 -224 270 -99
50 -152 58 -405 63 l-238 5 0 -607z"/>
</g>
</svg>
